<?xml version="1.0" encoding="UTF-8" standalone="no"?>
<!-- Created with Inkscape (http://www.inkscape.org/) -->

<svg
   width="125.8739mm"
   height="109.24792mm"
   viewBox="0 0 125.8739 109.24792"
   version="1.1"
   id="svg5"
   xml:space="preserve"
   xmlns="http://www.w3.org/2000/svg"
   xmlns:svg="http://www.w3.org/2000/svg"><defs
     id="defs2" /><g
     id="layer1"
     transform="translate(-53.537502,-33.593286)"><path
       style="fill:#2592c1;fill-opacity:1;stroke-width:0.264583"
       id="path2887"
       d="M 37.978999,32.366339 -24.249026,54.031545 -64.083379,1.5440924 -26.474337,-52.560143 36.603682,-33.510947 Z"
       transform="matrix(0.54915023,-0.17101869,0.16562006,0.56705059,121.00292,58.86994)" /><path
       style="fill:#e25c6a;fill-opacity:1;stroke-width:0.264583"
       id="path2887-3"
       d="M 37.978999,32.366339 -24.249026,54.031545 -64.083379,1.5440924 -26.474337,-52.560143 36.603682,-33.510947 Z"
       transform="matrix(-0.42370512,-0.38895673,0.40714691,-0.42802776,82.690548,110.04663)" /><path
       style="fill:#b9dc99;fill-opacity:1;stroke-width:0.264583"
       id="path2887-6"
       d="M 37.978999,32.366339 -24.249026,54.031545 -64.083379,1.5440924 -26.474337,-52.560143 36.603682,-33.510947 Z"
       transform="matrix(0.49149155,0.29874642,-0.31574258,0.49928249,150.84017,114.57064)" /><path
       style="fill:#4db1dd;fill-opacity:1;stroke-width:0.264583"
       id="path2887-34"
       d="m 37.978999,32.366339 c -0.75218,1.082085 -60.966465,22.04619 -62.228025,21.665206 -1.261561,-0.380984 -39.806846,-51.1699068 -39.834353,-52.4874526 -0.02751,-1.31754567 36.364481,-53.6709314 37.609042,-54.1042354 1.244561,-0.433304 62.281332,17.999447 63.078019,19.049196 0.796687,1.049749 2.127498,64.795201 1.375317,65.877286 z"
       transform="matrix(0.53209938,-0.16662561,0.16047764,0.55248435,120.95907,58.87051)" /><path
       style="fill:#e87884;fill-opacity:1;stroke-width:0.264583"
       id="path2887-3-3"
       d="m 37.978999,32.366339 c -0.75218,1.082085 -60.966465,22.04619 -62.228025,21.665206 -1.261561,-0.380984 -39.806846,-51.1699068 -39.834353,-52.4874526 -0.02751,-1.31754567 36.364481,-53.6709314 37.609042,-54.1042354 1.244561,-0.433304 62.281332,17.999447 63.078019,19.049196 0.796687,1.049749 2.127498,64.795201 1.375317,65.877286 z"
       transform="matrix(-0.41054928,-0.37896532,0.39450519,-0.4170327,82.846038,110.04222)" /><path
       style="fill:#cee7b8;fill-opacity:1;stroke-width:0.264583"
       id="path2887-6-1"
       d="m 37.978999,32.366339 c -0.75218,1.082085 -60.966465,22.04619 -62.228025,21.665206 -1.261561,-0.380984 -39.806846,-51.1699068 -39.834353,-52.4874526 -0.02751,-1.31754567 36.364481,-53.6709314 37.609042,-54.1042354 1.244561,-0.433304 62.281332,17.999447 63.078019,19.049196 0.796687,1.049749 2.127498,64.795201 1.375317,65.877286 z"
       transform="matrix(0.47623097,0.29107231,-0.30593892,0.48645706,150.73,114.43302)" /></g></svg>
